<svg id="visual" viewBox="0 0 960 540" width="960" height="540" xmlns="http://www.w3.org/2000/svg" xmlns:xlink="http://www.w3.org/1999/xlink" version="1.1"><rect x="0" y="0" width="960" height="540" fill="#202731"></rect><path d="M0 161L20 163.8C40 166.7 80 172.3 120 168.2C160 164 200 150 240 151.5C280 153 320 170 360 174.3C400 178.7 440 170.3 480 163.2C520 156 560 150 600 147.8C640 145.7 680 147.3 720 147.8C760 148.3 800 147.7 840 145.3C880 143 920 139 940 137L960 135L960 0L940 0C920 0 880 0 840 0C800 0 760 0 720 0C680 0 640 0 600 0C560 0 520 0 480 0C440 0 400 0 360 0C320 0 280 0 240 0C200 0 160 0 120 0C80 0 40 0 20 0L0 0Z" fill="#ff6f61"></path><path d="M0 99L20 100.2C40 101.3 80 103.7 120 108.2C160 112.7 200 119.3 240 118.3C280 117.3 320 108.7 360 109.3C400 110 440 120 480 125.8C520 131.7 560 133.3 600 134.7C640 136 680 137 720 132.2C760 127.3 800 116.7 840 113C880 109.3 920 112.7 940 114.3L960 116L960 0L940 0C920 0 880 0 840 0C800 0 760 0 720 0C680 0 640 0 600 0C560 0 520 0 480 0C440 0 400 0 360 0C320 0 280 0 240 0C200 0 160 0 120 0C80 0 40 0 20 0L0 0Z" fill="#f46051"></path><path d="M0 73L20 76.2C40 79.3 80 85.7 120 88.8C160 92 200 92 240 86.5C280 81 320 70 360 65.8C400 61.7 440 64.3 480 70.5C520 76.7 560 86.3 600 92.2C640 98 680 100 720 100.3C760 100.7 800 99.3 840 93.7C880 88 920 78 940 73L960 68L960 0L940 0C920 0 880 0 840 0C800 0 760 0 720 0C680 0 640 0 600 0C560 0 520 0 480 0C440 0 400 0 360 0C320 0 280 0 240 0C200 0 160 0 120 0C80 0 40 0 20 0L0 0Z" fill="#e85041"></path><path d="M0 37L20 34.5C40 32 80 27 120 25.8C160 24.7 200 27.3 240 33.2C280 39 320 48 360 50.5C400 53 440 49 480 44.2C520 39.3 560 33.7 600 29.8C640 26 680 24 720 27.3C760 30.7 800 39.3 840 43.8C880 48.3 920 48.7 940 48.8L960 49L960 0L940 0C920 0 880 0 840 0C800 0 760 0 720 0C680 0 640 0 600 0C560 0 520 0 480 0C440 0 400 0 360 0C320 0 280 0 240 0C200 0 160 0 120 0C80 0 40 0 20 0L0 0Z" fill="#dd3f31"></path></svg>